<mxfile host="65bd71144e">
    <diagram id="waNmTY90UkIYDFqS-C7Y" name="Main blocks">
        <mxGraphModel dx="2382" dy="2007" grid="1" gridSize="10" guides="1" tooltips="1" connect="1" arrows="1" fold="1" page="1" pageScale="1" pageWidth="850" pageHeight="1100" math="0" shadow="0">
            <root>
                <mxCell id="0"/>
                <mxCell id="1" parent="0"/>
                <mxCell id="18" value="Robot arm" style="rounded=0;whiteSpace=wrap;html=1;fontSize=14;dashed=1;verticalAlign=top;fillColor=#6a00ff;strokeColor=#3700CC;" vertex="1" parent="1">
                    <mxGeometry x="-250" y="130" width="340" height="590" as="geometry"/>
                </mxCell>
                <mxCell id="6" value="Robot base" style="rounded=0;whiteSpace=wrap;html=1;fontSize=14;dashed=1;verticalAlign=top;fillColor=#0050ef;strokeColor=#001DBC;" vertex="1" parent="1">
                    <mxGeometry x="180" y="860" width="570" height="170" as="geometry"/>
                </mxCell>
                <mxCell id="5" style="edgeStyle=orthogonalEdgeStyle;rounded=0;orthogonalLoop=1;jettySize=auto;html=1;exitX=1;exitY=0.5;exitDx=0;exitDy=0;fontSize=14;endArrow=none;endFill=0;strokeWidth=3;dashed=1;" edge="1" parent="1" source="2" target="3">
                    <mxGeometry relative="1" as="geometry"/>
                </mxCell>
                <mxCell id="2" value="Base motor x3&lt;br&gt;Omniwheel" style="rounded=1;whiteSpace=wrap;html=1;fontSize=14;" vertex="1" parent="1">
                    <mxGeometry x="410" y="910" width="120" height="60" as="geometry"/>
                </mxCell>
                <mxCell id="3" value="Optical encoder x3" style="rounded=1;whiteSpace=wrap;html=1;fontSize=14;" vertex="1" parent="1">
                    <mxGeometry x="570" y="910" width="120" height="60" as="geometry"/>
                </mxCell>
                <mxCell id="4" value="Ultrasonic range sensor x3" style="rounded=1;whiteSpace=wrap;html=1;fontSize=14;" vertex="1" parent="1">
                    <mxGeometry x="240" y="910" width="120" height="60" as="geometry"/>
                </mxCell>
                <mxCell id="7" value="Robot body" style="rounded=0;whiteSpace=wrap;html=1;fontSize=14;dashed=1;verticalAlign=top;fillColor=#6a00ff;strokeColor=#3700CC;" vertex="1" parent="1">
                    <mxGeometry x="120" y="130" width="690" height="360" as="geometry"/>
                </mxCell>
                <mxCell id="8" value="Robot head" style="rounded=0;whiteSpace=wrap;html=1;fontSize=14;dashed=1;verticalAlign=top;fillColor=#008a00;strokeColor=#005700;" vertex="1" parent="1">
                    <mxGeometry x="200" y="-160" width="530" height="210" as="geometry"/>
                </mxCell>
                <mxCell id="9" style="edgeStyle=orthogonalEdgeStyle;rounded=0;orthogonalLoop=1;jettySize=auto;html=1;fontSize=14;endArrow=none;endFill=0;strokeWidth=3;dashed=1;" edge="1" parent="1" source="6" target="7">
                    <mxGeometry relative="1" as="geometry">
                        <mxPoint x="460" y="640" as="sourcePoint"/>
                        <mxPoint x="500" y="640" as="targetPoint"/>
                    </mxGeometry>
                </mxCell>
                <mxCell id="10" style="edgeStyle=orthogonalEdgeStyle;rounded=0;orthogonalLoop=1;jettySize=auto;html=1;fontSize=14;endArrow=none;endFill=0;strokeWidth=3;dashed=1;" edge="1" parent="1" source="7" target="12">
                    <mxGeometry relative="1" as="geometry">
                        <mxPoint x="395" y="560" as="sourcePoint"/>
                        <mxPoint x="720" y="290" as="targetPoint"/>
                    </mxGeometry>
                </mxCell>
                <mxCell id="11" value="&lt;font style=&quot;font-size: 14px&quot;&gt;Servo&lt;br&gt;&lt;span style=&quot;box-sizing: border-box; text-align: left;&quot;&gt;HXT900HEXTRONIK&lt;br&gt;x4&lt;br&gt;---&lt;br&gt;Eyes - cameras&lt;br&gt;&lt;/span&gt;&lt;/font&gt;" style="rounded=1;whiteSpace=wrap;html=1;fontSize=14;fontStyle=0;" vertex="1" parent="1">
                    <mxGeometry x="387.5" y="-120" width="155" height="90" as="geometry"/>
                </mxCell>
                <mxCell id="12" value="Servo&lt;br&gt;&lt;span style=&quot;box-sizing: border-box; font-size: 16px; text-align: left;&quot;&gt;H King hk15138&lt;/span&gt;" style="rounded=1;whiteSpace=wrap;html=1;fontSize=14;fontStyle=0;" vertex="1" parent="1">
                    <mxGeometry x="395" y="-20" width="140" height="60" as="geometry"/>
                </mxCell>
                <mxCell id="13" value="&lt;span style=&quot;box-sizing: border-box; text-align: left;&quot;&gt;&lt;font style=&quot;font-size: 14px&quot;&gt;Linear Motor&lt;br&gt;s150106xd88&lt;br&gt;---&lt;br&gt;Arm rise&lt;br&gt;&lt;/font&gt;&lt;/span&gt;" style="rounded=1;whiteSpace=wrap;html=1;fontSize=14;" vertex="1" parent="1">
                    <mxGeometry x="150" y="370" width="120" height="70" as="geometry"/>
                </mxCell>
                <mxCell id="14" value="&lt;span style=&quot;box-sizing: border-box; text-align: left;&quot;&gt;&lt;font style=&quot;font-size: 14px&quot;&gt;Linear Motor&lt;br&gt;s150106xd88&lt;br&gt;---&lt;br&gt;Arm rotation&lt;br&gt;&lt;/font&gt;&lt;/span&gt;" style="rounded=1;whiteSpace=wrap;html=1;fontSize=14;" vertex="1" parent="1">
                    <mxGeometry x="150" y="220" width="120" height="70" as="geometry"/>
                </mxCell>
                <mxCell id="15" style="edgeStyle=orthogonalEdgeStyle;rounded=0;orthogonalLoop=1;jettySize=auto;html=1;fontSize=14;endArrow=none;endFill=0;strokeWidth=3;dashed=1;" edge="1" parent="1" source="13" target="14">
                    <mxGeometry relative="1" as="geometry">
                        <mxPoint x="475" y="140" as="sourcePoint"/>
                        <mxPoint x="475" y="50" as="targetPoint"/>
                    </mxGeometry>
                </mxCell>
                <mxCell id="16" value="&lt;span style=&quot;box-sizing: border-box; text-align: left;&quot;&gt;&lt;font style=&quot;font-size: 14px&quot;&gt;Linear Motor&lt;br&gt;SOVIK S100-30-12-15&lt;br&gt;---&lt;br&gt;Forearm&lt;br&gt;&lt;/font&gt;&lt;/span&gt;" style="rounded=1;whiteSpace=wrap;html=1;fontSize=14;" vertex="1" parent="1">
                    <mxGeometry x="-80" y="310" width="160" height="70" as="geometry"/>
                </mxCell>
                <mxCell id="17" value="&lt;span style=&quot;box-sizing: border-box; text-align: left;&quot;&gt;&lt;font style=&quot;font-size: 14px&quot;&gt;Servo&amp;nbsp;&lt;span&gt;SRS-3216HTG&lt;br&gt;&lt;/span&gt;---&lt;br&gt;Hand rotation&lt;br&gt;&lt;/font&gt;&lt;/span&gt;" style="rounded=1;whiteSpace=wrap;html=1;fontSize=14;" vertex="1" parent="1">
                    <mxGeometry x="-60" y="420" width="120" height="70" as="geometry"/>
                </mxCell>
                <mxCell id="19" style="edgeStyle=orthogonalEdgeStyle;rounded=0;orthogonalLoop=1;jettySize=auto;html=1;fontSize=14;endArrow=none;endFill=0;strokeWidth=3;dashed=1;" edge="1" parent="1" source="14" target="16">
                    <mxGeometry relative="1" as="geometry">
                        <mxPoint x="220" y="380" as="sourcePoint"/>
                        <mxPoint x="220" y="280" as="targetPoint"/>
                    </mxGeometry>
                </mxCell>
                <mxCell id="20" style="edgeStyle=orthogonalEdgeStyle;rounded=0;orthogonalLoop=1;jettySize=auto;html=1;fontSize=14;endArrow=none;endFill=0;strokeWidth=3;dashed=1;" edge="1" parent="1" source="17" target="16">
                    <mxGeometry relative="1" as="geometry">
                        <mxPoint x="250" y="380" as="sourcePoint"/>
                        <mxPoint x="250" y="280" as="targetPoint"/>
                    </mxGeometry>
                </mxCell>
                <mxCell id="21" value="&lt;span style=&quot;box-sizing: border-box; text-align: left;&quot;&gt;&lt;font style=&quot;font-size: 14px&quot;&gt;Servo&amp;nbsp;&lt;span&gt;SRS-3216HTG&lt;br&gt;&lt;/span&gt;---&lt;br&gt;Hand clamp&lt;br&gt;&lt;/font&gt;&lt;/span&gt;" style="rounded=1;whiteSpace=wrap;html=1;fontSize=14;" vertex="1" parent="1">
                    <mxGeometry x="-60" y="630" width="120" height="70" as="geometry"/>
                </mxCell>
                <mxCell id="23" style="edgeStyle=orthogonalEdgeStyle;rounded=0;orthogonalLoop=1;jettySize=auto;html=1;fontSize=14;endArrow=none;endFill=0;strokeWidth=3;dashed=1;" edge="1" parent="1" source="21" target="17">
                    <mxGeometry relative="1" as="geometry">
                        <mxPoint x="250" y="380" as="sourcePoint"/>
                        <mxPoint x="250" y="280" as="targetPoint"/>
                    </mxGeometry>
                </mxCell>
                <mxCell id="24" value="&lt;span style=&quot;box-sizing: border-box; text-align: left;&quot;&gt;&lt;font&gt;Absolute Encoder&lt;br&gt;&lt;span style=&quot;font-family: , &amp;quot;blinkmacsystemfont&amp;quot; , &amp;quot;segoe ui variable&amp;quot; , &amp;quot;segoe ui&amp;quot; , , , &amp;quot;helvetica&amp;quot; , &amp;quot;arial&amp;quot; , sans-serif , &amp;quot;apple color emoji&amp;quot; , &amp;quot;segoe ui emoji&amp;quot;&quot;&gt;&lt;font style=&quot;font-size: 14px&quot;&gt;hae18u5v12a0.5&lt;/font&gt;&lt;/span&gt;&lt;br&gt;&lt;/font&gt;&lt;/span&gt;" style="rounded=1;whiteSpace=wrap;html=1;fontSize=14;" vertex="1" parent="1">
                    <mxGeometry x="-230" y="390" width="140" height="70" as="geometry"/>
                </mxCell>
                <mxCell id="25" style="edgeStyle=orthogonalEdgeStyle;rounded=0;orthogonalLoop=1;jettySize=auto;html=1;fontSize=14;endArrow=none;endFill=0;strokeWidth=3;dashed=1;" edge="1" parent="1" source="16" target="24">
                    <mxGeometry relative="1" as="geometry">
                        <mxPoint x="190" y="245" as="sourcePoint"/>
                        <mxPoint x="10" y="320" as="targetPoint"/>
                    </mxGeometry>
                </mxCell>
                <mxCell id="26" value="&lt;span style=&quot;box-sizing: border-box; text-align: left;&quot;&gt;&lt;font&gt;Absolute Encoder&lt;br&gt;&lt;span style=&quot;font-family: , &amp;quot;blinkmacsystemfont&amp;quot; , &amp;quot;segoe ui variable&amp;quot; , &amp;quot;segoe ui&amp;quot; , , , &amp;quot;helvetica&amp;quot; , &amp;quot;arial&amp;quot; , sans-serif , &amp;quot;apple color emoji&amp;quot; , &amp;quot;segoe ui emoji&amp;quot;&quot;&gt;&lt;font style=&quot;font-size: 14px&quot;&gt;hae18u5v12a0.5&lt;/font&gt;&lt;/span&gt;&lt;br&gt;&lt;/font&gt;&lt;/span&gt;" style="rounded=1;whiteSpace=wrap;html=1;fontSize=14;" vertex="1" parent="1">
                    <mxGeometry x="-70" y="180" width="140" height="60" as="geometry"/>
                </mxCell>
                <mxCell id="27" style="edgeStyle=orthogonalEdgeStyle;rounded=0;orthogonalLoop=1;jettySize=auto;html=1;fontSize=14;endArrow=none;endFill=0;strokeWidth=3;dashed=1;exitX=0;exitY=0.25;exitDx=0;exitDy=0;" edge="1" parent="1" source="14" target="26">
                    <mxGeometry relative="1" as="geometry">
                        <mxPoint x="-100" y="355" as="sourcePoint"/>
                        <mxPoint x="-180" y="430" as="targetPoint"/>
                    </mxGeometry>
                </mxCell>
                <mxCell id="28" value="&lt;span style=&quot;box-sizing: border-box; text-align: left;&quot;&gt;&lt;font style=&quot;font-size: 14px&quot;&gt;PC x86 (Intel)&lt;br&gt;&lt;/font&gt;&lt;/span&gt;" style="rounded=1;whiteSpace=wrap;html=1;fontSize=14;" vertex="1" parent="1">
                    <mxGeometry x="405" y="190" width="120" height="70" as="geometry"/>
                </mxCell>
            </root>
        </mxGraphModel>
    </diagram>
</mxfile>